<?xml version="1.0" standalone="no"?>
<!DOCTYPE svg PUBLIC "-//W3C//DTD SVG 20010904//EN"
 "http://www.w3.org/TR/2001/REC-SVG-20010904/DTD/svg10.dtd">
<svg version="1.0" xmlns="http://www.w3.org/2000/svg"
 width="1106.000000pt" height="423.000000pt" viewBox="0 0 1106.000000 423.000000"
 preserveAspectRatio="xMidYMid meet">
<metadata>
Created by potrace 1.16, written by Peter Selinger 2001-2019
</metadata>
<g transform="translate(0.000000,423.000000) scale(0.100000,-0.100000)"
fill="#000000" stroke="none">
<path d="M8733 3939 c-415 -48 -795 -236 -1094 -541 l-96 -98 -3244 0 c-2688
-1 -3257 -3 -3319 -14 -337 -61 -606 -336 -660 -676 -8 -53 -10 -200 -8 -495
5 -472 5 -468 83 -630 96 -200 272 -350 500 -427 l70 -23 3266 -3 3266 -2 73
-83 c438 -501 1093 -721 1750 -587 276 56 565 197 791 386 444 370 688 953
640 1528 -20 244 -72 437 -176 651 -175 361 -445 639 -795 819 -215 110 -413
171 -642 195 -111 13 -299 12 -405 0z m433 -484 c412 -70 773 -334 963 -705
111 -214 146 -363 146 -615 0 -199 -13 -281 -67 -435 -69 -194 -158 -338 -301
-487 -191 -197 -382 -309 -649 -378 -141 -37 -376 -46 -529 -21 -427 71 -793
342 -987 731 -150 303 -178 656 -76 992 34 115 131 302 209 405 198 262 509
454 831 512 107 19 349 20 460 1z m-5931 -919 c117 -31 207 -107 259 -216 28
-59 31 -74 31 -165 -1 -128 -24 -191 -102 -275 -188 -203 -519 -152 -636 98
-59 127 -46 292 33 408 89 128 262 191 415 150z m-883 -16 c111 -34 191 -111
234 -225 28 -74 26 -221 -4 -297 -32 -80 -99 -150 -180 -190 -66 -33 -67 -33
-244 -36 l-178 -4 0 386 0 386 154 0 c125 0 166 -4 218 -20z m1660 -243 c81
-144 153 -276 160 -293 11 -26 12 15 9 262 l-3 294 66 0 66 0 0 -385 0 -385
-74 0 -74 0 -123 218 c-68 119 -143 253 -167 297 -26 47 -41 68 -37 50 4 -16
9 -150 12 -297 l5 -268 -66 0 -66 0 0 385 0 385 73 0 72 0 147 -263z m853 246
c26 -68 265 -737 265 -744 0 -5 -29 -9 -63 -9 l-64 0 -43 115 -42 115 -127 0
-126 0 -39 -115 -40 -115 -68 0 -68 0 39 108 c21 59 82 232 136 385 l99 277
67 0 c54 0 68 -3 74 -17z m765 -43 l0 -60 -85 0 -85 0 0 -325 0 -325 -65 0
-65 0 0 325 0 325 -95 0 -95 0 0 53 c0 30 3 57 7 60 3 4 114 7 245 7 l238 0 0
-60z m578 3 l-3 -58 -147 -3 -148 -3 0 -104 0 -105 145 0 145 0 0 -60 0 -60
-145 0 -145 0 0 -39 c0 -21 -3 -66 -6 -99 l-7 -61 154 -3 154 -3 3 -57 3 -58
-216 0 -215 0 0 385 0 385 215 0 216 0 -3 -57z"/>
<path d="M8775 3344 c-11 -2 -45 -9 -75 -15 -335 -64 -653 -297 -823 -601
-174 -311 -199 -709 -66 -1042 162 -406 527 -693 959 -757 129 -19 353 -7 472
25 379 101 688 370 829 722 17 42 43 120 57 173 23 87 25 113 25 286 0 172 -2
199 -25 285 -39 143 -83 248 -146 349 -178 283 -424 465 -741 548 -81 22 -123
26 -271 29 -96 1 -184 1 -195 -2z m-18 -559 c60 -18 116 -60 159 -120 30 -43
31 -44 41 -22 45 99 190 175 268 142 80 -33 79 -133 -2 -232 l-43 -53 180 0
180 0 0 -125 0 -125 -230 0 -230 0 0 124 0 124 28 10 c96 33 174 180 125 234
-43 47 -170 -6 -231 -96 -27 -41 -32 -57 -30 -95 3 -42 5 -46 31 -49 l27 -3 0
-125 0 -125 -87 3 -88 3 -3 123 -3 122 24 0 c89 0 43 155 -66 223 -59 37 -120
46 -147 22 -26 -23 -26 -74 0 -124 22 -44 93 -109 128 -118 22 -5 23 -7 20
-127 l-3 -121 -230 0 -230 0 -3 123 -3 122 187 0 186 0 -37 41 c-50 56 -79
122 -72 166 7 42 23 62 62 79 38 17 32 17 92 -1z m53 -920 l0 -335 -195 0
-195 0 0 335 0 335 195 0 195 0 0 -335z m220 0 l0 -335 -90 0 -90 0 0 335 0
335 90 0 90 0 0 -335z m430 0 l0 -335 -190 0 -190 0 0 335 0 335 190 0 190 0
0 -335z"/>
<path d="M3054 2417 c-80 -30 -143 -100 -165 -182 -15 -54 -6 -172 16 -215 24
-48 72 -98 120 -123 57 -30 173 -30 231 0 44 24 93 74 121 126 28 50 25 208
-4 263 -29 54 -101 117 -151 132 -49 15 -127 14 -168 -1z"/>
<path d="M2110 2156 l0 -264 63 -4 c139 -8 215 25 272 117 28 45 30 55 30 144
0 110 -17 154 -81 211 -56 49 -92 60 -194 60 l-90 0 0 -264z"/>
<path d="M4780 2374 c0 -9 -17 -70 -37 -135 -20 -66 -34 -121 -31 -124 3 -3
42 -5 86 -3 l80 3 -38 120 c-22 66 -39 128 -40 138 0 22 -20 23 -20 1z"/>
</g>
</svg>
